<svg width="11" height="10" viewBox="0 0 11 10" fill="none" xmlns="http://www.w3.org/2000/svg">
<path d="M8.89883 1.40015H1.09883C0.933143 1.40015 0.798828 1.53446 0.798828 1.70015V2.30015C0.798828 2.46583 0.933143 2.60015 1.09883 2.60015H8.89883C9.06451 2.60015 9.19883 2.46583 9.19883 2.30015V1.70015C9.19883 1.53446 9.06451 1.40015 8.89883 1.40015Z" fill="white"/>
<path fill-rule="evenodd" clip-rule="evenodd" d="M0.199219 1.70005C0.199219 1.20299 0.602162 0.800049 1.09922 0.800049H8.89922C9.39627 0.800049 9.79922 1.20299 9.79922 1.70005V2.30005C9.79922 2.79711 9.39627 3.20005 8.89922 3.20005H1.09922C0.602162 3.20005 0.199219 2.79711 0.199219 2.30005V1.70005Z" fill="white"/>
<path fill-rule="evenodd" clip-rule="evenodd" d="M7.99844 5C8.32981 5 8.59844 5.26863 8.59844 5.6V9.2C8.59844 9.53137 8.32981 9.8 7.99844 9.8C7.66707 9.8 7.39844 9.53137 7.39844 9.2V5.6C7.39844 5.26863 7.66707 5 7.99844 5Z" fill="white"/>
<path fill-rule="evenodd" clip-rule="evenodd" d="M6.07417 7.27583C6.30849 7.04152 6.68839 7.04152 6.9227 7.27583L7.99844 8.35157L9.07417 7.27583C9.30849 7.04152 9.68839 7.04152 9.9227 7.27583C10.157 7.51015 10.157 7.89005 9.9227 8.12436L8.4227 9.62436C8.18839 9.85868 7.80849 9.85868 7.57417 9.62436L6.07417 8.12436C5.83986 7.89005 5.83986 7.51015 6.07417 7.27583Z" fill="white"/>
<path d="M5.22623 8.97275C4.88663 8.63315 4.69883 8.18075 4.69883 7.70015C4.69883 7.21955 4.88603 6.76715 5.22623 6.42755C5.49443 6.15935 5.83223 5.98595 6.19883 5.92475V5.60015C6.19883 5.13755 6.37943 4.71935 6.66683 4.40015H0.798828V6.80015C0.798828 8.12375 1.87523 9.20015 3.19883 9.20015H5.45363L5.22623 8.97275Z" fill="white"/>
</svg>
