<svg width="13" height="13" viewBox="0 0 13 13" fill="none" xmlns="http://www.w3.org/2000/svg">
<path fill-rule="evenodd" clip-rule="evenodd" d="M7.69902 5.30049C7.93334 5.53481 7.93334 5.91471 7.69902 6.14902L5.93442 7.91362C5.70011 8.14793 5.32021 8.14793 5.08589 7.91362C4.85158 7.67931 4.85158 7.29941 5.08589 7.06509L6.85049 5.30049C7.08481 5.06618 7.46471 5.06618 7.69902 5.30049Z" fill="white"/>
<path fill-rule="evenodd" clip-rule="evenodd" d="M10.0237 2.90401L2.93775 5.26621C2.91886 5.2725 2.91318 5.27944 2.91055 5.28293C2.90608 5.28883 2.90093 5.29954 2.89956 5.31437C2.89819 5.3292 2.90128 5.34071 2.9046 5.34737C2.90657 5.35133 2.91089 5.35919 2.92828 5.36885L5.80118 6.96491C5.89913 7.01932 5.97988 7.10007 6.03429 7.19802L7.63029 10.0708C7.63995 10.0882 7.64788 10.0926 7.65183 10.0946C7.6585 10.0979 7.67001 10.101 7.68483 10.0996C7.69966 10.0983 7.71037 10.0931 7.71628 10.0887C7.71976 10.086 7.72669 10.0804 7.73299 10.0615L10.0952 2.97547C10.1008 2.95871 10.0993 2.95002 10.098 2.94497C10.0961 2.93756 10.0911 2.92743 10.0814 2.91777C10.0718 2.90811 10.0616 2.90314 10.0542 2.90122C10.0492 2.89992 10.0405 2.89843 10.0237 2.90401ZM9.64426 1.76559C10.6263 1.43824 11.561 2.37288 11.2336 3.35494L8.87141 10.4409C8.52563 11.4783 7.1119 11.6089 6.5813 10.6536L5.06856 7.93064L2.34572 6.41796C1.39039 5.88736 1.52094 4.47358 2.55825 4.1278L9.64426 1.76559Z" fill="white"/>
</svg>
