<svg width="40" height="40" viewBox="0 0 40 40" fill="none" xmlns="http://www.w3.org/2000/svg">
<path fill-rule="evenodd" clip-rule="evenodd" d="M27.3442 10.9734C27.859 10.9734 28.3738 11.0497 28.9129 11.2998C29.5593 11.6018 29.9003 12.076 30.1407 12.4267C30.455 12.9416 30.6208 13.5334 30.6197 14.1366C30.6219 14.7306 30.4721 15.3153 30.1845 15.8351L20.9766 31.6495C20.7741 31.999 20.4002 32.2136 19.9962 32.2123C19.5923 32.211 19.2199 31.9939 19.0197 31.643L9.98226 15.8611L9.97414 15.8481C9.7679 15.5071 9.44797 14.981 9.39113 14.3006C9.28653 13.0194 9.98816 11.8078 11.1515 11.2608C11.7621 10.9766 12.3809 10.9734 12.7706 10.9734H27.3442ZM18.8703 13.2338H12.7706C12.3695 13.2338 12.2152 13.2581 12.108 13.3085C11.798 13.452 11.6119 13.7753 11.6436 14.1155C11.6517 14.2129 11.6907 14.3217 11.9213 14.7017L11.9359 14.7261L18.8703 26.8349V13.2338ZM21.1308 26.895L28.2276 14.7066C28.3171 14.53 28.3627 14.3345 28.3608 14.1366C28.3608 13.9628 28.3251 13.8118 28.2439 13.6559C28.1906 13.5744 28.1308 13.4973 28.0652 13.4254C28.0351 13.3925 27.9986 13.366 27.958 13.3474C27.7651 13.2622 27.5549 13.2233 27.3442 13.2338H21.1308V26.895Z" fill="white"/>
</svg>
